<svg version="1.1" id="Layer_1" xmlns="http://www.w3.org/2000/svg" xmlns:xlink="http://www.w3.org/1999/xlink" x="0px" y="0px"
	 width="100%" viewBox="0 0 1024 768" enable-background="new 0 0 1024 768" xml:space="preserve">
<path fill="#000000" opacity="1.000000" stroke="none" 
	d="
M338.648560,637.930420 
	C270.765503,643.613403 203.578979,651.385132 136.862030,661.068665 
	C135.525421,658.805847 136.793411,657.640442 137.497925,656.419678 
	C168.225037,603.175476 198.984085,549.949646 229.712967,496.706512 
	C270.601562,425.859833 311.448059,354.988892 352.351654,284.150879 
	C381.258362,234.089371 410.076294,183.975647 439.216339,134.050140 
	C467.194611,86.115074 535.935425,85.287254 565.064819,132.582733 
	C577.030396,152.010300 588.070740,172.008743 599.485046,191.774582 
	C634.809204,252.944672 670.100952,314.133453 705.423767,375.304291 
	C743.413940,441.094086 781.423645,506.872559 819.429993,572.652893 
	C822.263489,577.556946 825.148132,582.431396 827.989990,587.330627 
	C828.704651,588.562805 829.771362,589.703247 829.512878,591.251099 
	C827.854248,591.919922 827.127075,590.743286 826.287781,590.084167 
	C795.787170,566.129700 761.239929,549.775024 725.062744,536.648315 
	C678.914124,519.903564 631.354370,508.857788 582.740662,502.125732 
	C562.780884,499.361664 542.746643,497.660156 522.653931,496.460083 
	C513.196289,495.895203 503.784851,496.877991 494.405060,497.815491 
	C493.905273,495.662811 495.469757,495.844879 496.418365,495.465302 
	C523.989258,484.433624 552.164612,475.412659 581.393433,469.879822 
	C588.779602,468.481720 589.041016,467.907074 585.310669,461.437317 
	C561.676819,420.448425 538.021729,379.471771 514.377686,338.488770 
	C511.713654,333.871094 509.119415,329.212585 506.412781,324.620209 
	C503.384186,319.481659 501.962433,319.423065 498.990875,324.519318 
	C489.676544,340.493774 480.441711,356.514648 471.195465,372.528717 
	C443.790497,419.992859 416.389801,467.459534 389.011475,514.939087 
	C387.719971,517.178772 385.962280,519.271240 385.790955,522.608765 
	C569.191406,514.497803 736.040710,562.637085 886.270386,667.799927 
	C887.508606,668.666687 889.323730,669.258545 889.263794,671.942322 
	C886.290588,670.880432 883.530334,669.932068 880.796631,668.912537 
	C848.554810,656.888611 815.221252,649.146118 781.380981,643.286743 
	C756.621643,638.999695 731.703064,635.923767 706.711487,633.589600 
	C689.491272,631.981201 672.201111,631.017029 654.917908,630.038513 
	C622.478455,628.201965 590.007812,627.624146 557.547180,627.550232 
	C527.742249,627.482361 497.913544,628.254456 468.133087,629.534851 
	C434.713409,630.971680 401.332733,633.340515 367.942444,635.421631 
	C358.316345,636.021606 348.715576,637.027344 338.648560,637.930420 
z"/>
</svg>